<svg xmlns="http://www.w3.org/2000/svg" viewBox="0 0 24 24" width="24" height="24">
  <defs>
    <linearGradient id="foodGradient" x1="0%" y1="0%" x2="100%" y2="100%">
      <stop offset="0%" stop-color="#ff9a00" />
      <stop offset="100%" stop-color="#e74c3c" />
    </linearGradient>
  </defs>
  <path fill="url(#foodGradient)" d="M12,2C6.48,2,2,6.48,2,12s4.48,10,10,10s10-4.48,10-10S17.52,2,12,2z M12,20c-4.41,0-8-3.59-8-8 c0-4.41,3.59-8,8-8s8,3.59,8,8C20,16.41,16.41,20,12,20z"/>
  <path fill="#ffffff" d="M12,6c-3.31,0-6,2.69-6,6s2.69,6,6,6s6-2.69,6-6S15.31,6,12,6z M12,16c-2.21,0-4-1.79-4-4 c0-2.21,1.79-4,4-4s4,1.79,4,4C16,14.21,14.21,16,12,16z"/>
  <path fill="#e74c3c" d="M12,8c-2.21,0-4,1.79-4,4c0,2.21,1.79,4,4,4s4-1.79,4-4C16,9.79,14.21,8,12,8z M12,14 c-1.1,0-2-0.9-2-2c0-1.1,0.9-2,2-2s2,0.9,2,2C14,13.1,13.1,14,12,14z"/>
</svg> 