<svg xmlns="http://www.w3.org/2000/svg" viewBox="0 0 24 24" width="24" height="24">
  <defs>
    <linearGradient id="woodGradient" x1="0%" y1="0%" x2="100%" y2="100%">
      <stop offset="0%" stop-color="#8B4513" />
      <stop offset="100%" stop-color="#5D4037" />
    </linearGradient>
  </defs>
  <path fill="url(#woodGradient)" d="M7,2v20h10V2H7z M15,20H9V4h6V20z"/>
  <path fill="#A1887F" d="M9,4v16h6V4H9z M13,18h-2v-2h2V18z M13,14h-2v-2h2V14z M13,10h-2V8h2V10z M13,6h-2V4h2V6z"/>
  <path fill="#8B4513" d="M11,4v2h2V4H11z M11,8v2h2V8H11z M11,12v2h2v-2H11z M11,16v2h2v-2H11z"/>
</svg> 